<svg xmlns="http://www.w3.org/2000/svg" viewBox="0 0 291.76 85.96"><defs><style>.a{fill:#fff;}</style></defs><path class="a" d="M26.05,14.51H48.2V27H26.05V62.87c0,8.27,5.93,10.6,10,10.6,5,0,10.14-1.72,15.76-5.14V81.27C47,83.92,39.47,86,34.94,86c-15.13,0-22.77-9.36-22.77-22V27H0V25.43L26.05,0Z"/><path class="a" d="M161.08,56.94l18.25-42.43h14.82L163.26,86h-4.37L138.15,37,117.56,86h-4.37L82,14.51H96.81l18.41,42.43L133,14.51h10.29Z"/><path class="a" d="M291.76,48.83C291.76,71,276.32,86,253.85,86c-21.53,0-37-15.6-37-37.12,0-20.13,16.07-35.73,37-35.73C275.85,13.1,291.76,28.08,291.76,48.83Zm-60.68,0c0,14.82,9.2,24.64,22.62,24.64,14.66,0,23.86-9.36,23.86-24.49,0-13.57-10-23.4-23.86-23.4C240.59,25.58,231.08,35.41,231.08,48.83Z"/><polygon class="a" points="66.62 85.95 90.29 85.95 78.46 59.73 66.62 85.95"/><polygon class="a" points="185.43 85.95 208.91 85.95 197.17 59.95 185.43 85.95"/></svg>